<svg width="153" height="57" viewBox="0 0 153 57" fill="none" xmlns="http://www.w3.org/2000/svg">
<path fill-rule="evenodd" clip-rule="evenodd" d="M116.941 13.4332V7.91069L128.538 14.5377L152.837 0.731445V6.80619L128.538 20.0602L116.941 13.4332ZM116.941 21.7168V16.1943L128.538 22.8213L152.837 9.01505V15.0898L128.538 28.3438L116.941 21.7168ZM116.941 24.4781V30.0006L128.538 36.6276L152.837 23.3736V17.2989L128.538 31.1051L116.941 24.4781Z" fill="#083B5C"/>
<path d="M19.193 7.60254H4.8345L3.73 12.0205C7.41167 12.2046 15.8795 12.0205 15.8795 12.0205C15.8795 12.0205 17.1863 11.8099 16.984 13.125C16.6158 15.5181 15.6586 20.8565 14.775 23.0655C14.6273 23.4347 14.2227 24.7223 13.1182 24.7223H5.939L8.148 13.6773H3.73L0.416504 29.1403C3.73 29.3244 14.2227 29.1403 14.2227 29.1403C17.3153 28.6985 18.4567 27.1154 18.6407 26.379C19.5612 22.5133 21.5124 14.1191 21.9542 11.4683C22.396 8.81749 20.2975 7.78662 19.193 7.60254Z" fill="#083B5C"/>
<path fill-rule="evenodd" clip-rule="evenodd" d="M38.5216 7.60254H32.4468L21.4019 29.1403H25.8199L27.4766 25.8268H35.2081V29.1403H40.1783L38.5216 7.60254ZM34.6566 12.0205L35.2088 22.5133H29.1341L34.6566 12.0205Z" fill="#083B5C"/>
<path d="M44.5967 29.1403L48.4624 7.60254H52.8804L49.5669 25.2745H59.5074L58.9552 29.1403H44.5967Z" fill="#083B5C"/>
<path d="M74.4181 12.0206L82.7018 12.0206L83.2541 7.60258C79.3883 7.4185 71.215 7.16078 69.4478 7.60258C67.6806 8.04438 67.2276 8.45992 66.6866 10.3638C65.0298 16.1946 63.373 26.1351 63.373 26.6874C63.373 27.2396 63.373 28.8964 64.4776 29.1403H78.8361L79.9406 24.7223H69.4478C68.3433 24.7223 68.8956 23.0656 68.8956 23.0656L71.1046 13.1251C71.6568 12.0206 72.2091 12.0206 74.4181 12.0206Z" fill="#083B5C"/>
<path fill-rule="evenodd" clip-rule="evenodd" d="M91.18 7.3584H104.326C106.201 7.3584 107.616 9.05837 107.276 10.9019L104.313 26.9919C104.05 28.4152 102.809 29.4484 101.362 29.4484H87.7926C85.8871 29.4484 84.4644 27.695 84.857 25.8304L88.2443 9.74037C88.5366 8.35214 89.7613 7.3584 91.18 7.3584ZM94.2476 11.4275H100.277C101.227 11.4275 101.938 12.2986 101.747 13.2287L99.5017 24.1803C99.3587 24.8781 98.7446 25.3791 98.0323 25.3791H91.7834C90.8222 25.3791 90.109 24.4876 90.32 23.5498L92.7841 12.5982C92.9381 11.9138 93.546 11.4275 94.2476 11.4275Z" fill="#083B5C"/>
<path d="M0.76123 55.978H2.87999C4.91795 55.978 5.34889 54.7571 5.34889 52.7999C5.34889 50.8787 4.87306 49.8282 2.87999 49.8282H0.76123V55.978ZM1.76674 55.0982V50.7081H2.87999C4.11893 50.7081 4.31644 51.4532 4.31644 52.7999C4.31644 54.1466 4.11893 55.0982 2.87999 55.0982H1.76674Z" fill="#083B5C"/>
<path d="M7.22441 55.978H8.22992L8.5621 54.6673H10.9143L11.2375 55.978H12.252L10.7347 49.8282H8.73268L7.22441 55.978ZM8.75961 53.7785L9.51375 50.6722H9.96264L10.7168 53.7785H8.75961Z" fill="#083B5C"/>
<path d="M14.4752 55.978H17.9227V55.0803H15.4807V49.8282H14.4752V55.978Z" fill="#083B5C"/>
<path d="M22.0863 56.0768C22.6609 56.0768 23.415 55.9691 23.837 55.8793L23.8101 55.0444C23.424 55.1072 22.7058 55.179 22.2479 55.179C21.0449 55.179 20.8205 54.5955 20.8205 52.9076C20.8205 51.1659 21.0898 50.6183 22.221 50.6183C22.6609 50.6183 23.4061 50.6991 23.8101 50.7709L23.846 49.9539C23.4599 49.8642 22.7237 49.7295 22.0863 49.7295C20.2459 49.7295 19.779 50.6811 19.779 52.9076C19.779 55.0084 20.21 56.0768 22.0863 56.0768Z" fill="#083B5C"/>
<path d="M28.4169 56.0768C30.3381 56.0768 30.9127 55.0264 30.9127 52.9346C30.9127 50.8697 30.3381 49.7295 28.4169 49.7295C26.4956 49.7295 25.9121 50.8787 25.9121 52.9346C25.9121 55.0084 26.4866 56.0768 28.4169 56.0768ZM28.4169 55.197C27.2228 55.197 26.9535 54.4698 26.9535 52.9346C26.9535 51.4083 27.2318 50.6093 28.4169 50.6093C29.593 50.6093 29.8713 51.4173 29.8713 52.9346C29.8713 54.4877 29.6019 55.197 28.4169 55.197Z" fill="#083B5C"/>
<path d="M36.7391 55.978H40.1866V55.0803H37.7446V49.8282H36.7391V55.978Z" fill="#083B5C"/>
<path d="M42.3467 55.978H43.3522V49.8282H42.3467V55.978Z" fill="#083B5C"/>
<path d="M46.1044 55.978H47.1099V50.9415H47.2446L48.69 55.7267H49.7314L51.1858 50.9415H51.3205V55.978H52.326V49.8282H50.5753L49.2107 54.6224L47.8461 49.8282H46.1044V55.978Z" fill="#083B5C"/>
<path d="M55.0787 55.978H56.0842V49.8282H55.0787V55.978Z" fill="#083B5C"/>
<path d="M59.9945 55.978H61V50.726H62.7328V49.8282H58.2439V50.726H59.9945V55.978Z" fill="#083B5C"/>
<path d="M64.9087 55.978H68.7871V55.0982H65.9142V53.3027H68.2484V52.4408H65.9142V50.7081H68.7871V49.8282H64.9087V55.978Z" fill="#083B5C"/>
<path d="M71.2177 55.978H73.3365C75.3744 55.978 75.8054 54.7571 75.8054 52.7999C75.8054 50.8787 75.3295 49.8282 73.3365 49.8282H71.2177V55.978ZM72.2232 55.0982V50.7081H73.3365C74.5754 50.7081 74.7729 51.4532 74.7729 52.7999C74.7729 54.1466 74.5754 55.0982 73.3365 55.0982H72.2232Z" fill="#083B5C"/>
<path d="M83.7 56.0768C84.2746 56.0768 85.0287 55.9691 85.4507 55.8793L85.4237 55.0444C85.0377 55.1072 84.3195 55.179 83.8616 55.179C82.6586 55.179 82.4341 54.5955 82.4341 52.9076C82.4341 51.1659 82.7035 50.6183 83.8347 50.6183C84.2746 50.6183 85.0197 50.6991 85.4237 50.7709L85.4597 49.9539C85.0736 49.8642 84.3374 49.7295 83.7 49.7295C81.8596 49.7295 81.3927 50.6811 81.3927 52.9076C81.3927 55.0084 81.8236 56.0768 83.7 56.0768Z" fill="#083B5C"/>
<path d="M90.0305 56.0768C91.9518 56.0768 92.5264 55.0264 92.5264 52.9346C92.5264 50.8697 91.9518 49.7295 90.0305 49.7295C88.1093 49.7295 87.5257 50.8787 87.5257 52.9346C87.5257 55.0084 88.1003 56.0768 90.0305 56.0768ZM90.0305 55.197C88.8365 55.197 88.5672 54.4698 88.5672 52.9346C88.5672 51.4083 88.8455 50.6093 90.0305 50.6093C91.2066 50.6093 91.4849 51.4173 91.4849 52.9346C91.4849 54.4877 91.2156 55.197 90.0305 55.197Z" fill="#083B5C"/>
<path d="M95.0334 55.978H96.0389V50.9415H96.1736L97.619 55.7267H98.6605L100.115 50.9415H100.25V55.978H101.255V49.8282H99.5044L98.1398 54.6224L96.7751 49.8282H95.0334V55.978Z" fill="#083B5C"/>
<path d="M104.008 55.978H105.013V54.0658H106.261C107.662 54.0658 108.353 53.2847 108.353 51.9021C108.353 50.5106 107.662 49.8282 106.261 49.8282H104.008V55.978ZM105.013 53.1949V50.6991H106.252C106.988 50.6991 107.33 51.0582 107.33 51.9021C107.33 52.746 106.988 53.1949 106.252 53.1949H105.013Z" fill="#083B5C"/>
<path d="M109.91 55.978H110.915L111.247 54.6673H113.6L113.923 55.978H114.937L113.42 49.8282H111.418L109.91 55.978ZM111.445 53.7785L112.199 50.6722H112.648L113.402 53.7785H111.445Z" fill="#083B5C"/>
<path d="M117.161 55.978H118.166V50.7081H118.292L120.186 55.978H121.901V49.8282H120.895V55.0982H120.77L118.911 49.8282H117.161V55.978Z" fill="#083B5C"/>
<path d="M125.919 55.978H126.924V53.4463L128.837 49.8282H127.714L126.413 52.4587L125.111 49.8282H123.989L125.919 53.4463V55.978Z" fill="#083B5C"/>
<path d="M140.459 49.8282L139.579 55.1072H139.391L138.223 49.8462H137.047L135.88 55.1072H135.692L134.812 49.8282H133.761L134.964 55.978H136.589L137.64 51.0403L138.69 55.978H140.306L141.518 49.8282H140.459Z" fill="#083B5C"/>
<path d="M143.782 55.978H147.229V55.0803H144.787V49.8282H143.782V55.978Z" fill="#083B5C"/>
<path d="M149.389 55.978H152.837V55.0803H150.395V49.8282H149.389V55.978Z" fill="#083B5C"/>
</svg>
